<mxfile host="app.diagrams.net" agent="Mozilla/5.0 (Windows NT 10.0; Win64; x64) AppleWebKit/537.36 (KHTML, like Gecko) Chrome/140.0.0.0 Safari/537.36 Edg/140.0.0.0" version="28.2.5">
  <diagram name="Страница — 1" id="leSRuLuTsu3Wm1vzeXws">
    <mxGraphModel dx="978" dy="548" grid="0" gridSize="10" guides="1" tooltips="1" connect="1" arrows="1" fold="1" page="1" pageScale="1" pageWidth="3300" pageHeight="4681" math="0" shadow="0">
      <root>
        <mxCell id="0" />
        <mxCell id="1" parent="0" />
        <mxCell id="pU2t_8PtlyjDyvNXjwgW-54" value="" style="rounded=1;whiteSpace=wrap;html=1;fillColor=#E6E6E6;strokeColor=#666666;gradientColor=#999999;" parent="1" vertex="1">
          <mxGeometry x="618" y="431" width="303" height="614" as="geometry" />
        </mxCell>
        <mxCell id="pU2t_8PtlyjDyvNXjwgW-57" value="&lt;font style=&quot;font-size: 22px;&quot;&gt;Smart To-Do List&lt;/font&gt;" style="text;html=1;align=center;verticalAlign=middle;resizable=0;points=[];autosize=1;strokeColor=none;fillColor=none;rotation=0;" parent="1" vertex="1">
          <mxGeometry x="679" y="434" width="181" height="38" as="geometry" />
        </mxCell>
        <mxCell id="pU2t_8PtlyjDyvNXjwgW-64" value="" style="rounded=1;whiteSpace=wrap;html=1;fillColor=#DAE8FC;strokeColor=#6C8EBF;" parent="1" vertex="1">
          <mxGeometry x="650.5" y="498.5" width="19" height="19" as="geometry" />
        </mxCell>
        <mxCell id="pU2t_8PtlyjDyvNXjwgW-65" value="&lt;font style=&quot;color: rgb(179, 179, 179);&quot;&gt;Добавить задачу...&lt;/font&gt;" style="rounded=0;whiteSpace=wrap;html=1;align=left;" parent="1" vertex="1">
          <mxGeometry x="648" y="463" width="243" height="27" as="geometry" />
        </mxCell>
        <mxCell id="pU2t_8PtlyjDyvNXjwgW-67" value="&lt;span style=&quot;color: rgba(0, 0, 0, 0); font-family: monospace; font-size: 0px; text-align: start; text-wrap-mode: nowrap;&quot;&gt;%3CmxGraphModel%3E%3Croot%3E%3CmxCell%20id%3D%220%22%2F%3E%3CmxCell%20id%3D%221%22%20parent%3D%220%22%2F%3E%3CmxCell%20id%3D%222%22%20value%3D%22%22%20style%3D%22rounded%3D1%3BwhiteSpace%3Dwrap%3Bhtml%3D1%3B%22%20vertex%3D%221%22%20parent%3D%221%22%3E%3CmxGeometry%20x%3D%22650.5%22%20y%3D%22529%22%20width%3D%2219%22%20height%3D%2219%22%20as%3D%22geometry%22%2F%3E%3C%2FmxCell%3E%3C%2Froot%3E%3C%2FmxGraphModel%3E&lt;/span&gt;" style="rounded=1;whiteSpace=wrap;html=1;fillColor=#dae8fc;strokeColor=#6c8ebf;" parent="1" vertex="1">
          <mxGeometry x="650.5" y="610.5" width="19" height="19" as="geometry" />
        </mxCell>
        <mxCell id="pU2t_8PtlyjDyvNXjwgW-68" value="&lt;span style=&quot;color: rgba(0, 0, 0, 0); font-family: monospace; font-size: 0px; text-align: start; text-wrap-mode: nowrap;&quot;&gt;%3CmxGraphModel%3E%3Croot%3E%3CmxCell%20id%3D%220%22%2F%3E%3CmxCell%20id%3D%221%22%20parent%3D%220%22%2F%3E%3CmxCell%20id%3D%222%22%20value%3D%22%22%20style%3D%22rounded%3D1%3BwhiteSpace%3Dwrap%3Bhtml%3D1%3B%22%20vertex%3D%221%22%20parent%3D%221%22%3E%3CmxGeometry%20x%3D%22650.5%22%20y%3D%22529%22%20width%3D%2219%22%20height%3D%2219%22%20as%3D%22geometry%22%2F%3E%3C%2FmxCell%3E%3C%2Froot%3E%3C%2FmxGraphModel%3E&lt;/span&gt;" style="rounded=1;whiteSpace=wrap;html=1;fillColor=#D5E8D4;strokeColor=#82B366;" parent="1" vertex="1">
          <mxGeometry x="650.5" y="553" width="19" height="19" as="geometry" />
        </mxCell>
        <mxCell id="pU2t_8PtlyjDyvNXjwgW-78" value="" style="rounded=0;whiteSpace=wrap;html=1;align=left;strokeColor=#000000;fillColor=#000000;" parent="1" vertex="1">
          <mxGeometry x="831.5" y="463" width="60" height="27" as="geometry" />
        </mxCell>
        <mxCell id="pU2t_8PtlyjDyvNXjwgW-79" value="&lt;font style=&quot;color: rgb(255, 255, 255);&quot;&gt;Добавить&lt;/font&gt;" style="text;html=1;align=center;verticalAlign=middle;resizable=0;points=[];autosize=1;" parent="1" vertex="1">
          <mxGeometry x="826" y="464" width="71" height="26" as="geometry" />
        </mxCell>
        <mxCell id="pU2t_8PtlyjDyvNXjwgW-81" value="&lt;span style=&quot;color: rgba(0, 0, 0, 0); font-family: monospace; font-size: 0px; text-align: start; text-wrap-mode: nowrap;&quot;&gt;%3CmxGraphModel%3E%3Croot%3E%3CmxCell%20id%3D%220%22%2F%3E%3CmxCell%20id%3D%221%22%20parent%3D%220%22%2F%3E%3CmxCell%20id%3D%222%22%20value%3D%22%26lt%3Bspan%20style%3D%26quot%3Bcolor%3A%20rgba(0%2C%200%2C%200%2C%200)%3B%20font-family%3A%20monospace%3B%20font-size%3A%200px%3B%20text-align%3A%20start%3B%20text-wrap-mode%3A%20nowrap%3B%26quot%3B%26gt%3B%253CmxGraphModel%253E%253Croot%253E%253CmxCell%2520id%253D%25220%2522%252F%253E%253CmxCell%2520id%253D%25221%2522%2520parent%253D%25220%2522%252F%253E%253CmxCell%2520id%253D%25222%2522%2520value%253D%2522%2522%2520style%253D%2522rounded%253D1%253BwhiteSpace%253Dwrap%253Bhtml%253D1%253B%2522%2520vertex%253D%25221%2522%2520parent%253D%25221%2522%253E%253CmxGeometry%2520x%253D%2522650.5%2522%2520y%253D%2522529%2522%2520width%253D%252219%2522%2520height%253D%252219%2522%2520as%253D%2522geometry%2522%252F%253E%253C%252FmxCell%253E%253C%252Froot%253E%253C%252FmxGraphModel%253E%26lt%3B%2Fspan%26gt%3B%22%20style%3D%22rounded%3D1%3BwhiteSpace%3Dwrap%3Bhtml%3D1%3B%22%20vertex%3D%221%22%20parent%3D%221%22%3E%3CmxGeometry%20x%3D%22650.5%22%20y%3D%22639%22%20width%3D%2219%22%20height%3D%2219%22%20as%3D%22geometry%22%2F%3E%3C%2FmxCell%3E%3C%2Froot%3E%3C%2FmxGraphModel%3&lt;/span&gt;" style="rounded=1;whiteSpace=wrap;html=1;fillColor=#ffe6cc;strokeColor=#D79B00;" parent="1" vertex="1">
          <mxGeometry x="650.5" y="667.5" width="19" height="19" as="geometry" />
        </mxCell>
        <mxCell id="pU2t_8PtlyjDyvNXjwgW-83" value="Совещание&amp;nbsp;" style="text;html=1;align=left;verticalAlign=middle;resizable=0;points=[];autosize=1;strokeColor=none;fillColor=none;" parent="1" vertex="1">
          <mxGeometry x="670" y="607" width="86" height="26" as="geometry" />
        </mxCell>
        <mxCell id="pU2t_8PtlyjDyvNXjwgW-88" value="Обсуждение плана работы на день" style="text;html=1;align=center;verticalAlign=middle;resizable=0;points=[];autosize=1;strokeColor=none;fillColor=none;" parent="1" vertex="1">
          <mxGeometry x="664" y="495" width="215" height="26" as="geometry" />
        </mxCell>
        <mxCell id="pU2t_8PtlyjDyvNXjwgW-89" value="Обеденный перерыв" style="text;html=1;align=left;verticalAlign=middle;resizable=0;points=[];autosize=1;strokeColor=none;fillColor=none;" parent="1" vertex="1">
          <mxGeometry x="670" y="549.5" width="134" height="26" as="geometry" />
        </mxCell>
        <mxCell id="-tK4qYBmkvmh3DTL-hfF-6" value="" style="shape=partialRectangle;whiteSpace=wrap;html=1;bottom=0;right=0;fillColor=none;rotation=-140;" vertex="1" parent="1">
          <mxGeometry x="656.75" y="498.5" width="6.5" height="13.5" as="geometry" />
        </mxCell>
        <mxCell id="-tK4qYBmkvmh3DTL-hfF-7" value="&lt;span style=&quot;color: rgba(0, 0, 0, 0); font-family: monospace; font-size: 0px; text-align: start; background-color: rgb(236, 236, 236);&quot;&gt;%3CmxGraphModel%3E%3Croot%3E%3CmxCell%20id%3D%220%22%2F%3E%3CmxCell%20id%3D%221%22%20parent%3D%220%22%2F%3E%3CmxCell%20id%3D%222%22%20value%3D%22%26lt%3Bspan%20style%3D%26quot%3Bcolor%3A%20rgba(0%2C%200%2C%200%2C%200)%3B%20font-family%3A%20monospace%3B%20font-size%3A%200px%3B%20text-align%3A%20start%3B%20text-wrap-mode%3A%20nowrap%3B%26quot%3B%26gt%3B%253CmxGraphModel%253E%253Croot%253E%253CmxCell%2520id%253D%25220%2522%252F%253E%253CmxCell%2520id%253D%25221%2522%2520parent%253D%25220%2522%252F%253E%253CmxCell%2520id%253D%25222%2522%2520value%253D%2522%2522%2520style%253D%2522rounded%253D1%253BwhiteSpace%253Dwrap%253Bhtml%253D1%253B%2522%2520vertex%253D%25221%2522%2520parent%253D%25221%2522%253E%253CmxGeometry%2520x%253D%2522650.5%2522%2520y%253D%2522529%2522%2520width%253D%252219%2522%2520height%253D%252219%2522%2520as%253D%2522geometry%2522%252F%253E%253C%252FmxCell%253E%253C%252Froot%253E%253C%252FmxGraphModel%253E%26lt%3B%2Fspan%26gt%3B%22%20style%3D%22rounded%3D1%3BwhiteSpace%3Dwrap%3Bhtml%3D1%3B%22%20vertex%3D%221%22%20parent%3D%221%22%3E%3CmxGeometry%20x%3D%22650.5%22%20y%3D%22639%22%20width%3D%2219%22%20height%3D%2219%22%20as%3D%22geometry%22%2F%3E%3C%2FmxCell%3E%3C%2Froot%3E%3C%2FmxGraphModel%3&lt;/span&gt;" style="endArrow=none;html=1;rounded=0;strokeColor=#4D4D4D;exitX=0.01;exitY=0.185;exitDx=0;exitDy=0;exitPerimeter=0;entryX=1.002;entryY=0.104;entryDx=0;entryDy=0;entryPerimeter=0;" edge="1" parent="1" target="pU2t_8PtlyjDyvNXjwgW-54">
          <mxGeometry width="50" height="50" relative="1" as="geometry">
            <mxPoint x="618" y="494" as="sourcePoint" />
            <mxPoint x="917.97" y="494.90999999999997" as="targetPoint" />
          </mxGeometry>
        </mxCell>
        <mxCell id="-tK4qYBmkvmh3DTL-hfF-8" value="&lt;span style=&quot;color: rgba(0, 0, 0, 0); font-family: monospace; font-size: 0px; text-align: start; background-color: rgb(236, 236, 236);&quot;&gt;%3CmxGraphModel%3E%3Croot%3E%3CmxCell%20id%3D%220%22%2F%3E%3CmxCell%20id%3D%221%22%20parent%3D%220%22%2F%3E%3CmxCell%20id%3D%222%22%20value%3D%22%26lt%3Bspan%20style%3D%26quot%3Bcolor%3A%20rgba(0%2C%200%2C%200%2C%200)%3B%20font-family%3A%20monospace%3B%20font-size%3A%200px%3B%20text-align%3A%20start%3B%20text-wrap-mode%3A%20nowrap%3B%26quot%3B%26gt%3B%253CmxGraphModel%253E%253Croot%253E%253CmxCell%2520id%253D%25220%2522%252F%253E%253CmxCell%2520id%253D%25221%2522%2520parent%253D%25220%2522%252F%253E%253CmxCell%2520id%253D%25222%2522%2520value%253D%2522%2522%2520style%253D%2522rounded%253D1%253BwhiteSpace%253Dwrap%253Bhtml%253D1%253B%2522%2520vertex%253D%25221%2522%2520parent%253D%25221%2522%253E%253CmxGeometry%2520x%253D%2522650.5%2522%2520y%253D%2522529%2522%2520width%253D%252219%2522%2520height%253D%252219%2522%2520as%253D%2522geometry%2522%252F%253E%253C%252FmxCell%253E%253C%252Froot%253E%253C%252FmxGraphModel%253E%26lt%3B%2Fspan%26gt%3B%22%20style%3D%22rounded%3D1%3BwhiteSpace%3Dwrap%3Bhtml%3D1%3B%22%20vertex%3D%221%22%20parent%3D%221%22%3E%3CmxGeometry%20x%3D%22650.5%22%20y%3D%22639%22%20width%3D%2219%22%20height%3D%2219%22%20as%3D%22geometry%22%2F%3E%3C%2FmxCell%3E%3C%2Froot%3E%3C%2FmxGraphModel%3&lt;/span&gt;" style="endArrow=none;html=1;rounded=0;strokeColor=#4D4D4D;exitX=0.01;exitY=0.185;exitDx=0;exitDy=0;exitPerimeter=0;entryX=1.002;entryY=0.104;entryDx=0;entryDy=0;entryPerimeter=0;" edge="1" parent="1">
          <mxGeometry width="50" height="50" relative="1" as="geometry">
            <mxPoint x="618" y="548.5" as="sourcePoint" />
            <mxPoint x="922" y="549.5" as="targetPoint" />
          </mxGeometry>
        </mxCell>
        <mxCell id="-tK4qYBmkvmh3DTL-hfF-9" value="&lt;span style=&quot;color: rgba(0, 0, 0, 0); font-family: monospace; font-size: 0px; text-align: start; background-color: rgb(236, 236, 236);&quot;&gt;%3CmxGraphModel%3E%3Croot%3E%3CmxCell%20id%3D%220%22%2F%3E%3CmxCell%20id%3D%221%22%20parent%3D%220%22%2F%3E%3CmxCell%20id%3D%222%22%20value%3D%22%26lt%3Bspan%20style%3D%26quot%3Bcolor%3A%20rgba(0%2C%200%2C%200%2C%200)%3B%20font-family%3A%20monospace%3B%20font-size%3A%200px%3B%20text-align%3A%20start%3B%20text-wrap-mode%3A%20nowrap%3B%26quot%3B%26gt%3B%253CmxGraphModel%253E%253Croot%253E%253CmxCell%2520id%253D%25220%2522%252F%253E%253CmxCell%2520id%253D%25221%2522%2520parent%253D%25220%2522%252F%253E%253CmxCell%2520id%253D%25222%2522%2520value%253D%2522%2522%2520style%253D%2522rounded%253D1%253BwhiteSpace%253Dwrap%253Bhtml%253D1%253B%2522%2520vertex%253D%25221%2522%2520parent%253D%25221%2522%253E%253CmxGeometry%2520x%253D%2522650.5%2522%2520y%253D%2522529%2522%2520width%253D%252219%2522%2520height%253D%252219%2522%2520as%253D%2522geometry%2522%252F%253E%253C%252FmxCell%253E%253C%252Froot%253E%253C%252FmxGraphModel%253E%26lt%3B%2Fspan%26gt%3B%22%20style%3D%22rounded%3D1%3BwhiteSpace%3Dwrap%3Bhtml%3D1%3B%22%20vertex%3D%221%22%20parent%3D%221%22%3E%3CmxGeometry%20x%3D%22650.5%22%20y%3D%22639%22%20width%3D%2219%22%20height%3D%2219%22%20as%3D%22geometry%22%2F%3E%3C%2FmxCell%3E%3C%2Froot%3E%3C%2FmxGraphModel%3&lt;/span&gt;" style="endArrow=none;html=1;rounded=0;strokeColor=#4D4D4D;exitX=0.01;exitY=0.185;exitDx=0;exitDy=0;exitPerimeter=0;entryX=1.002;entryY=0.104;entryDx=0;entryDy=0;entryPerimeter=0;" edge="1" parent="1">
          <mxGeometry width="50" height="50" relative="1" as="geometry">
            <mxPoint x="617.5" y="606" as="sourcePoint" />
            <mxPoint x="921.5" y="607" as="targetPoint" />
          </mxGeometry>
        </mxCell>
        <mxCell id="-tK4qYBmkvmh3DTL-hfF-10" value="&lt;span style=&quot;color: rgba(0, 0, 0, 0); font-family: monospace; font-size: 0px; text-align: start; background-color: rgb(236, 236, 236);&quot;&gt;%3CmxGraphModel%3E%3Croot%3E%3CmxCell%20id%3D%220%22%2F%3E%3CmxCell%20id%3D%221%22%20parent%3D%220%22%2F%3E%3CmxCell%20id%3D%222%22%20value%3D%22%26lt%3Bfont%20style%3D%26quot%3Bfont-size%3A%208px%3B%20color%3A%20rgb(128%2C%20128%2C%20128)%3B%26quot%3B%26gt%3B%D0%A0%D0%B0%D0%B1%D0%BE%D1%82%D0%B0%20%23%26lt%3B%2Ffont%26gt%3B%22%20style%3D%22text%3Bhtml%3D1%3Balign%3Dcenter%3BverticalAlign%3Dmiddle%3Bresizable%3D0%3Bpoints%3D%5B%5D%3Bautosize%3D1%3BstrokeColor%3Dnone%3BfillColor%3Dnone%3B%22%20vertex%3D%221%22%20parent%3D%221%22%3E%3CmxGeometry%20x%3D%22869%22%20y%3D%22516.5%22%20width%3D%2251%22%20height%3D%2226%22%20as%3D%22geometry%22%2F%3E%3C%2FmxCell%3E%3C%2Froot%3E%3C%2FmxGraphModel%3E&lt;/span&gt;" style="endArrow=none;html=1;rounded=0;strokeColor=#4D4D4D;exitX=0.01;exitY=0.185;exitDx=0;exitDy=0;exitPerimeter=0;entryX=1.002;entryY=0.104;entryDx=0;entryDy=0;entryPerimeter=0;" edge="1" parent="1">
          <mxGeometry width="50" height="50" relative="1" as="geometry">
            <mxPoint x="617" y="663" as="sourcePoint" />
            <mxPoint x="921" y="664" as="targetPoint" />
          </mxGeometry>
        </mxCell>
        <mxCell id="-tK4qYBmkvmh3DTL-hfF-11" value="" style="rounded=1;whiteSpace=wrap;html=1;strokeColor=#66FF66;" vertex="1" parent="1">
          <mxGeometry x="653" y="523.5" width="15" height="14" as="geometry" />
        </mxCell>
        <mxCell id="-tK4qYBmkvmh3DTL-hfF-13" value="" style="endArrow=none;html=1;rounded=0;entryX=1;entryY=0.392;entryDx=0;entryDy=0;entryPerimeter=0;strokeColor=#66FF66;" edge="1" parent="1">
          <mxGeometry width="50" height="50" relative="1" as="geometry">
            <mxPoint x="653" y="527.5" as="sourcePoint" />
            <mxPoint x="668.3399999999999" y="527.5040000000001" as="targetPoint" />
            <Array as="points">
              <mxPoint x="660" y="527.5" />
            </Array>
          </mxGeometry>
        </mxCell>
        <mxCell id="-tK4qYBmkvmh3DTL-hfF-14" value="&lt;font style=&quot;color: rgb(51, 255, 51);&quot;&gt;.&lt;/font&gt;" style="text;html=1;align=center;verticalAlign=middle;resizable=0;points=[];autosize=1;strokeColor=none;fillColor=none;" vertex="1" parent="1">
          <mxGeometry x="654" y="518.5" width="21" height="26" as="geometry" />
        </mxCell>
        <mxCell id="-tK4qYBmkvmh3DTL-hfF-15" value="&lt;font style=&quot;font-size: 9px; color: rgb(102, 255, 102);&quot;&gt;9:00&lt;/font&gt;" style="text;html=1;align=center;verticalAlign=middle;resizable=0;points=[];autosize=1;strokeColor=none;fillColor=none;" vertex="1" parent="1">
          <mxGeometry x="661" y="516.5" width="36" height="26" as="geometry" />
        </mxCell>
        <mxCell id="-tK4qYBmkvmh3DTL-hfF-16" value="&lt;font style=&quot;font-size: 8px; color: rgb(108, 142, 191);&quot;&gt;Работа #&lt;/font&gt;" style="text;html=1;align=center;verticalAlign=middle;resizable=0;points=[];autosize=1;strokeColor=none;fillColor=none;" vertex="1" parent="1">
          <mxGeometry x="869" y="517.5" width="51" height="26" as="geometry" />
        </mxCell>
        <mxCell id="-tK4qYBmkvmh3DTL-hfF-17" value="Сходить в магазин после работы" style="text;html=1;align=center;verticalAlign=middle;resizable=0;points=[];autosize=1;strokeColor=none;fillColor=none;" vertex="1" parent="1">
          <mxGeometry x="663.25" y="664" width="202" height="26" as="geometry" />
        </mxCell>
        <mxCell id="-tK4qYBmkvmh3DTL-hfF-18" value="" style="rounded=1;whiteSpace=wrap;html=1;strokeColor=#66FF66;" vertex="1" parent="1">
          <mxGeometry x="653" y="691.5" width="15" height="14" as="geometry" />
        </mxCell>
        <mxCell id="-tK4qYBmkvmh3DTL-hfF-19" value="" style="endArrow=none;html=1;rounded=0;entryX=1;entryY=0.392;entryDx=0;entryDy=0;entryPerimeter=0;strokeColor=#66FF66;" edge="1" parent="1">
          <mxGeometry width="50" height="50" relative="1" as="geometry">
            <mxPoint x="653" y="695.5" as="sourcePoint" />
            <mxPoint x="668.3399999999999" y="695.5040000000001" as="targetPoint" />
            <Array as="points">
              <mxPoint x="660" y="695.5" />
            </Array>
          </mxGeometry>
        </mxCell>
        <mxCell id="-tK4qYBmkvmh3DTL-hfF-20" value="&lt;font style=&quot;color: rgb(51, 255, 51);&quot;&gt;.&lt;/font&gt;" style="text;html=1;align=center;verticalAlign=middle;resizable=0;points=[];autosize=1;strokeColor=none;fillColor=none;" vertex="1" parent="1">
          <mxGeometry x="654" y="686.5" width="21" height="26" as="geometry" />
        </mxCell>
        <mxCell id="-tK4qYBmkvmh3DTL-hfF-24" value="" style="rounded=1;whiteSpace=wrap;html=1;strokeColor=#66FF66;" vertex="1" parent="1">
          <mxGeometry x="653" y="634.5" width="15" height="14" as="geometry" />
        </mxCell>
        <mxCell id="-tK4qYBmkvmh3DTL-hfF-25" value="" style="endArrow=none;html=1;rounded=0;entryX=1;entryY=0.392;entryDx=0;entryDy=0;entryPerimeter=0;strokeColor=#66FF66;" edge="1" parent="1">
          <mxGeometry width="50" height="50" relative="1" as="geometry">
            <mxPoint x="653" y="638.5" as="sourcePoint" />
            <mxPoint x="668.3399999999999" y="638.5040000000001" as="targetPoint" />
            <Array as="points">
              <mxPoint x="660" y="638.5" />
            </Array>
          </mxGeometry>
        </mxCell>
        <mxCell id="-tK4qYBmkvmh3DTL-hfF-26" value="&lt;font style=&quot;color: rgb(51, 255, 51);&quot;&gt;.&lt;/font&gt;" style="text;html=1;align=center;verticalAlign=middle;resizable=0;points=[];autosize=1;strokeColor=none;fillColor=none;" vertex="1" parent="1">
          <mxGeometry x="654" y="629.5" width="21" height="26" as="geometry" />
        </mxCell>
        <mxCell id="-tK4qYBmkvmh3DTL-hfF-27" value="" style="rounded=1;whiteSpace=wrap;html=1;strokeColor=#66FF66;" vertex="1" parent="1">
          <mxGeometry x="653" y="577" width="15" height="14" as="geometry" />
        </mxCell>
        <mxCell id="-tK4qYBmkvmh3DTL-hfF-28" value="" style="endArrow=none;html=1;rounded=0;entryX=1;entryY=0.392;entryDx=0;entryDy=0;entryPerimeter=0;strokeColor=#66FF66;" edge="1" parent="1">
          <mxGeometry width="50" height="50" relative="1" as="geometry">
            <mxPoint x="653" y="581" as="sourcePoint" />
            <mxPoint x="668.3399999999999" y="581.0040000000001" as="targetPoint" />
            <Array as="points">
              <mxPoint x="660" y="581" />
            </Array>
          </mxGeometry>
        </mxCell>
        <mxCell id="-tK4qYBmkvmh3DTL-hfF-29" value="&lt;font style=&quot;color: rgb(51, 255, 51);&quot;&gt;.&lt;/font&gt;" style="text;html=1;align=center;verticalAlign=middle;resizable=0;points=[];autosize=1;strokeColor=none;fillColor=none;" vertex="1" parent="1">
          <mxGeometry x="654" y="572" width="21" height="26" as="geometry" />
        </mxCell>
        <mxCell id="-tK4qYBmkvmh3DTL-hfF-30" value="&lt;font style=&quot;font-size: 9px; color: rgb(102, 255, 102);&quot;&gt;12:00&lt;/font&gt;" style="text;html=1;align=center;verticalAlign=middle;resizable=0;points=[];autosize=1;strokeColor=none;fillColor=none;" vertex="1" parent="1">
          <mxGeometry x="659" y="571" width="41" height="26" as="geometry" />
        </mxCell>
        <mxCell id="-tK4qYBmkvmh3DTL-hfF-31" value="&lt;font style=&quot;font-size: 9px; color: rgb(102, 255, 102);&quot;&gt;14:00&lt;/font&gt;" style="text;html=1;align=center;verticalAlign=middle;resizable=0;points=[];autosize=1;strokeColor=none;fillColor=none;" vertex="1" parent="1">
          <mxGeometry x="659.5" y="627.5" width="41" height="26" as="geometry" />
        </mxCell>
        <mxCell id="-tK4qYBmkvmh3DTL-hfF-32" value="&lt;font style=&quot;font-size: 9px; color: rgb(102, 255, 102);&quot;&gt;18:00&lt;/font&gt;" style="text;html=1;align=center;verticalAlign=middle;resizable=0;points=[];autosize=1;strokeColor=none;fillColor=none;" vertex="1" parent="1">
          <mxGeometry x="658.5" y="684.5" width="41" height="26" as="geometry" />
        </mxCell>
        <mxCell id="-tK4qYBmkvmh3DTL-hfF-33" value="&lt;font style=&quot;font-size: 8px; color: rgb(130, 179, 102);&quot;&gt;Свободное время #&lt;/font&gt;" style="text;html=1;align=center;verticalAlign=middle;resizable=0;points=[];autosize=1;strokeColor=none;fillColor=none;" vertex="1" parent="1">
          <mxGeometry x="829" y="572" width="91" height="26" as="geometry" />
        </mxCell>
        <mxCell id="-tK4qYBmkvmh3DTL-hfF-34" value="&lt;font style=&quot;font-size: 8px; color: rgb(108, 142, 191);&quot;&gt;Работа #&lt;/font&gt;" style="text;html=1;align=center;verticalAlign=middle;resizable=0;points=[];autosize=1;strokeColor=none;fillColor=none;" vertex="1" parent="1">
          <mxGeometry x="869" y="633" width="51" height="26" as="geometry" />
        </mxCell>
        <mxCell id="-tK4qYBmkvmh3DTL-hfF-35" value="&lt;span style=&quot;color: rgba(0, 0, 0, 0); font-family: monospace; font-size: 0px; text-align: start; background-color: rgb(236, 236, 236);&quot;&gt;%3CmxGraphModel%3E%3Croot%3E%3CmxCell%20id%3D%220%22%2F%3E%3CmxCell%20id%3D%221%22%20parent%3D%220%22%2F%3E%3CmxCell%20id%3D%222%22%20value%3D%22%26lt%3Bfont%20style%3D%26quot%3Bfont-size%3A%208px%3B%20color%3A%20rgb(128%2C%20128%2C%20128)%3B%26quot%3B%26gt%3B%D0%A0%D0%B0%D0%B1%D0%BE%D1%82%D0%B0%20%23%26lt%3B%2Ffont%26gt%3B%22%20style%3D%22text%3Bhtml%3D1%3Balign%3Dcenter%3BverticalAlign%3Dmiddle%3Bresizable%3D0%3Bpoints%3D%5B%5D%3Bautosize%3D1%3BstrokeColor%3Dnone%3BfillColor%3Dnone%3B%22%20vertex%3D%221%22%20parent%3D%221%22%3E%3CmxGeometry%20x%3D%22869%22%20y%3D%22516.5%22%20width%3D%2251%22%20height%3D%2226%22%20as%3D%22geometry%22%2F%3E%3C%2FmxCell%3E%3C%2Froot%3E%3C%2FmxGraphModel%3E&lt;/span&gt;" style="endArrow=none;html=1;rounded=0;strokeColor=#4D4D4D;exitX=0.01;exitY=0.185;exitDx=0;exitDy=0;exitPerimeter=0;entryX=1.002;entryY=0.104;entryDx=0;entryDy=0;entryPerimeter=0;" edge="1" parent="1">
          <mxGeometry width="50" height="50" relative="1" as="geometry">
            <mxPoint x="617" y="720" as="sourcePoint" />
            <mxPoint x="921" y="721" as="targetPoint" />
          </mxGeometry>
        </mxCell>
        <mxCell id="-tK4qYBmkvmh3DTL-hfF-36" value="&lt;font style=&quot;font-size: 8px; color: rgb(215, 155, 0);&quot;&gt;Бытовые дела #&lt;/font&gt;" style="text;html=1;align=center;verticalAlign=middle;resizable=0;points=[];autosize=1;strokeColor=none;fillColor=none;" vertex="1" parent="1">
          <mxGeometry x="846" y="690" width="78" height="26" as="geometry" />
        </mxCell>
      </root>
    </mxGraphModel>
  </diagram>
</mxfile>
